<svg xmlns="http://www.w3.org/2000/svg" width="512" height="512" viewBox="0 0 512 512">
  <defs>
    <linearGradient id="bg" x1="0" y1="0" x2="1" y2="1">
      <stop offset="0%" stop-color="#1d4ed8" />
      <stop offset="100%" stop-color="#0f172a" />
    </linearGradient>
    <filter id="shadow" x="-20%" y="-20%" width="140%" height="140%">
      <feDropShadow dx="0" dy="10" stdDeviation="12" flood-color="#000000" flood-opacity="0.22" />
    </filter>
  </defs>

  <circle cx="256" cy="256" r="240" fill="url(#bg)" />

  <g filter="url(#shadow)">
    <path
      d="M256 78c-75.1 0-136 60.9-136 136 0 57.8 31.7 125.3 58.3 170.8 26.2 44.8 52.4 79.5 57.9 86.7 4.9 6.3 12.5 10 19.8 10s14.9-3.7 19.8-10c5.5-7.2 31.7-41.9 57.9-86.7 26.6-45.5 58.3-113 58.3-170.8C392 138.9 331.1 78 256 78z"
      fill="#ffffff"
    />
    <circle cx="256" cy="214" r="78" fill="#1d4ed8" />

    <polygon
      points="256,158 192,222 210,222 256,180 302,222 320,222"
      fill="#ffffff"
    />
    <rect x="208" y="222" width="96" height="82" rx="10" fill="#ffffff" />

    <rect x="246" y="252" width="20" height="52" rx="6" fill="#1d4ed8" />
    <rect x="224" y="242" width="18" height="18" rx="4" fill="#1d4ed8" />
    <rect x="270" y="242" width="18" height="18" rx="4" fill="#1d4ed8" />
  </g>
</svg>

